<?xml version="1.0" encoding="UTF-8"?>
<svg width="1000px" height="1000px" viewBox="0 0 1000 1000" version="1.1" xmlns="http://www.w3.org/2000/svg" xmlns:xlink="http://www.w3.org/1999/xlink">
    <!-- Generator: Sketch 55.1 (78136) - https://sketchapp.com -->
    <title>编组 41</title>
    <desc>Created with Sketch.</desc>
    <g id="上传" stroke="none" stroke-width="1" fill="none" fill-rule="evenodd">
        <g id="1" transform="translate(-10799.000000, -3588.000000)">
            <g id="编组-41" transform="translate(10799.000000, 3588.000000)">
                <rect id="矩形备份-29" x="0" y="0" width="1000" height="1000"></rect>
                <g id="编组" transform="translate(55.000000, 112.000000)" fill-rule="nonzero">
                    <path d="M51,773.384504 C51,786.418422 61.6050779,797 74.6861868,797 L785.312132,797 C798.393241,797 809,786.420097 809,773.384504 L809,378 L51,378 L51,773.384504 Z" id="路径" fill="#DF584C"></path>
                    <polygon id="路径" fill="#B9483E" opacity="0.49" points="358 530.227637 316.691069 530.010543 293.096998 564 280.536102 524.554593 241 512.560591 274.542731 488.399249 273.701644 447 306.992553 471.509702 346.013258 457.915265 333.042731 497.234455"></polygon>
                    <polygon id="路径" fill="#B9483E" opacity="0.49" points="595 696.264957 558.690746 703.763947 544.272779 738 525.936631 705.699495 489 702.531168 513.974637 675.069533 505.569453 638.87445 539.339084 654.199495 571.08103 635 566.977146 671.93475"></polygon>
                    <polygon id="路径" fill="#B9483E" opacity="0.49" points="203 584.506823 169.08945 591.423983 155.621621 623 138.498672 593.210832 104 590.287807 127.327722 564.958255 119.474859 531.570362 151.016069 545.706661 180.659784 528 176.827722 562.068597"></polygon>
                    <polygon id="路径" fill="#B9483E" opacity="0.49" points="290 724.506892 256.430716 731.424899 243.100397 763 226.147252 733.209594 192 730.285661 215.090046 704.957833 207.316976 671.574444 238.539005 685.712121 267.88559 668 264.090889 702.070976"></polygon>
                    <polygon id="路径" fill="#B9483E" opacity="0.49" points="147 438.119367 127.818017 442.052281 120.200145 460 110.514227 443.065867 91 441.402979 104.196513 427.008714 99.7536021 408.028858 117.594745 416.06671 134.362877 406 132.194818 425.364377"></polygon>
                    <path d="M830.412305,213 L29.5860156,213 C13.2443359,213 0,226.19438 0,242.464883 L0,348.535117 C0,364.803948 13.2443359,378 29.5860156,378 L51.2875781,378 L808.72082,378 L830.413984,378 C846.755664,378 860,364.803948 860,348.535117 L860,242.464883 C860,226.19438 846.752305,213 830.412305,213 Z" id="路径" fill="#DF584C"></path>
                    <path d="M527.191446,5.83083359 C454.911024,27.8794368 435.128519,102.38063 430.502182,155.72034 C425.877526,102.38063 406.086618,27.8794368 333.802835,5.83083359 C217.374757,-29.6824885 179.875045,106.456673 221.317143,159.727497 C262.75924,213 262.75924,213 430.502182,213 C598.240083,213 598.240083,213 639.68218,159.727497 C681.124277,106.454993 643.629607,-29.6824885 527.191446,5.83083359 Z M394.840905,179.128184 C280.449559,179.128184 280.449559,179.128184 252.189077,142.799989 C223.930275,106.468434 249.493601,13.630088 328.89754,37.8494445 C408.301479,62.0671209 394.840905,179.128184 394.840905,179.128184 Z M608.813607,142.799989 C580.549764,179.128184 580.549764,179.128184 466.155056,179.128184 C466.155056,179.128184 452.694483,62.068801 532.098422,37.8494445 C611.502361,13.6284079 637.074089,106.468434 608.813607,142.799989 Z" id="形状" fill="#F2B643"></path>
                    <rect id="矩形" fill="#B9483E" x="51" y="378" width="758" height="48"></rect>
                    <rect id="矩形" fill="#F2B643" x="343" y="213" width="174" height="585"></rect>
                    <rect id="矩形" fill="#D89932" x="343" y="378" width="174" height="47"></rect>
                    <path d="M396,164.970261 C395.809598,173.636329 395.191213,179 395.191213,179 C280.493426,179 280.493426,179 252.157238,142.735683 C223.822735,106.468012 249.454542,13.7929083 329.071194,37.9696786 C329.071194,37.9696786 268.766015,23.8627889 251.264202,84.2535602 C233.762389,144.642654 286.997422,165.738417 318.499674,165.884333 C344.854334,166.006768 396,164.970261 396,164.970261 Z" id="路径" fill="#D89932"></path>
                    <path d="M542.49995,165.884373 C574.000365,165.738458 627.236823,144.64276 609.735095,84.2538523 C592.233367,23.8632672 531.930167,37.9701134 531.930167,37.9701134 C611.544747,13.7917405 637.178115,106.468236 608.842064,142.735795 C580.507698,179 580.507698,179 465.808783,179 C465.808783,179 465.188716,173.636346 465,164.970305 C465.001685,164.968627 516.147103,166.005131 542.49995,165.884373 Z" id="路径" fill="#D89932"></path>
                    <polygon id="路径" fill="#B9483E" opacity="0.49" points="759 549.898682 712.043111 549.654668 685.220683 588 670.942603 543.494144 626 529.966396 664.130318 502.706998 663.172734 456 701.019137 483.655503 745.373749 468.317705 730.631998 512.673141"></polygon>
                    <polygon id="路径" fill="#B9483E" opacity="0.49" points="711.247448 768 703.892181 732.022365 670 717.668602 702.040729 699.573959 705.260133 663 732.417005 687.793626 768.297096 679.542523 753.039045 712.960165 772 744.435976 735.412348 740.293626"></polygon>
                </g>
            </g>
        </g>
    </g>
</svg>